<svg xmlns="http://www.w3.org/2000/svg" xmlns:xlink="http://www.w3.org/1999/xlink" width="909.49" height="277.842" viewBox="0 0 909.49 277.842">
  <defs>
    <linearGradient id="linear-gradient" x2="0.844" y2="0.863" gradientUnits="objectBoundingBox">
      <stop offset="0" stop-color="#02b2fe"/>
      <stop offset="1" stop-color="#0080ff"/>
    </linearGradient>
  </defs>
  <g id="Group_26" data-name="Group 26" transform="translate(-5590.51 -1926)">
    <text id="dhami" transform="translate(5866 2101)" fill="#fff" font-size="181" font-family="Montserrat-ExtraBoldItalic, Montserrat" font-weight="800" font-style="italic"><tspan x="0" y="0">dhami</tspan></text>
    <text id="sports" transform="translate(5906.477 2183.842)" fill="#fff" font-size="79" font-family="Montserrat-BlackItalic, Montserrat" font-weight="800" font-style="italic" letter-spacing="0.7em"><tspan x="0" y="0">sports</tspan></text>
    <path id="Subtraction_4" data-name="Subtraction 4" d="M-4603.721-957.087h-122.134v-58.351l11.5-.783,40.361,3.662,3.606.238,5.146.34,24.8-18.58,16.055-14.712,38.458,23.552-6.21,12.849-2.57,21.022-5.708,26.225-3.1,2.686-.206,1.851Zm19.249-1.45h0l-3.579-3.139.283-3.033,5.925-23.206,3.367-6.591.618-1.529,12.108-29.63.385-.591-12.134-15.239-26.581-24.413,1.581-7.338v-.886l.063-.179,15.1-18.8,6.53-3.418,1.388-10.934,9.28,10.408,12.16,10.845,12.48-7.916,6.195-4.163,5.913-3.855,8.085-2.929,3.136-.168,6.183-1.208-.591-.989-5.578-.218,1.863-1.028,7.237-2.879-.694-1.079-8.354,1.156,1.58-.913,6.621-4.419-.85-1.182-8.65,3.379,5.938-4.844-1.143-1.169-11.9,6.745-.219-6.206-2.571-2.043V-1117l-.951,5-1.941,3.894-2.083,1.221-11.259,4.818-8.42,1.17-11.928-16.7,3.856-.322,3.856-6.116h2.738l-.36-7.273,3.034-1.966,2.57-10.716-9.782-7.517H-4578.1l-6.58,5.449v11.654l-3.536,4.729h-14.2l-9.756-1.85-19.911-.514-5.565,12.22-8.7,18.528-5.141,5.448-4.653.527h-7.019l-.217,1.285,5.616,1.028-7.647,2.968.45,1.413,8.458-2.018-8.394,5.141,1.068,1.657,9.242-4.574-6.119,5.769,1.118,1.221,9.41-5.024.564,4.78,1.826.707,1.235-7.35,5.629-8.415,10.952-15.779,5.385-8.84,1.5-.475,12.521,4.844v.077l-4.243,11.372-15.128,22.871-14.139,10.858-2.763,14.635-14.538,15.7-9,10.629-2.707,3.2-22.442-2.891-28.277,3.52-2.044-2.4V-1202h122.5a123.434,123.434,0,0,1,24.687,2.488,121.879,121.879,0,0,1,22.995,7.135,122.525,122.525,0,0,1,20.809,11.29,123.377,123.377,0,0,1,18.13,14.953,123.37,123.37,0,0,1,14.959,18.123,122.408,122.408,0,0,1,11.294,20.8,121.873,121.873,0,0,1,7.138,22.986,123.312,123.312,0,0,1,2.489,24.679,121.563,121.563,0,0,1-6.853,40.49,121.56,121.56,0,0,1-19.915,35.917,122.53,122.53,0,0,1-15.9,16.5,122.585,122.585,0,0,1-18.465,13.1,122.639,122.639,0,0,1-20.495,9.452,122.569,122.569,0,0,1-21.989,5.544Zm73-43.335h0a122.108,122.108,0,0,1-36.1,5.506,122.082,122.082,0,0,0,36.1-5.506Z" transform="translate(10316.365 3160.74)" fill="url(#linear-gradient)"/>
  </g>
</svg>
